<svg width="39" height="38" viewBox="0 0 39 38" fill="none" xmlns="http://www.w3.org/2000/svg">
<g clip-path="url(#clip0_1268_235)">
<path fill-rule="evenodd" clip-rule="evenodd" d="M19.5391 0C9.04568 0 0.539062 8.50662 0.539062 19C0.539062 29.4934 9.04568 38 19.5391 38C30.0324 38 38.5391 29.4934 38.5391 19C38.5391 8.50662 30.0324 0 19.5391 0ZM21.5195 19.8346V30.1716H17.2425V19.835H15.1057V16.2728H17.2425V14.1341C17.2425 11.2281 18.449 9.5 21.877 9.5H24.7309V13.0626H22.947C21.6126 13.0626 21.5243 13.5604 21.5243 14.4895L21.5195 16.2724H24.7511L24.3729 19.8346H21.5195Z" fill="#A5ABAD"/>
</g>
<defs>
<clipPath id="clip0_1268_235">
<rect width="38" height="38" fill="white" transform="translate(0.539062)"/>
</clipPath>
</defs>
</svg>
