<svg width="38" height="38" viewBox="0 0 38 38" fill="none" xmlns="http://www.w3.org/2000/svg">
<g clip-path="url(#clip0_1268_231)">
<path fill-rule="evenodd" clip-rule="evenodd" d="M19 0C8.50662 0 0 8.50662 0 19C0 29.4934 8.50662 38 19 38C29.4934 38 38 29.4934 38 19C38 8.50662 29.4934 0 19 0ZM14.8226 8.92786C15.9035 8.8787 16.2489 8.86667 19.0009 8.86667H18.9978C21.7507 8.86667 22.0948 8.8787 23.1757 8.92786C24.2545 8.97726 24.9913 9.1481 25.6373 9.39867C26.3044 9.6573 26.8681 10.0035 27.4317 10.5672C27.9955 11.1304 28.3417 11.6958 28.6013 12.3623C28.8505 13.0066 29.0215 13.7429 29.0721 14.8217C29.1207 15.9027 29.1333 16.248 29.1333 19.0001C29.1333 21.7521 29.1207 22.0967 29.0721 23.1776C29.0215 24.256 28.8505 24.9925 28.6013 25.6371C28.3417 26.3034 27.9955 26.8687 27.4317 27.432C26.8687 27.9956 26.3042 28.3427 25.638 28.6016C24.9932 28.8521 24.256 29.0229 23.1772 29.0723C22.0963 29.1215 21.752 29.1336 18.9997 29.1336C16.2479 29.1336 15.9027 29.1215 14.8217 29.0723C13.7432 29.0229 13.0066 28.8521 12.3619 28.6016C11.6958 28.3427 11.1304 27.9956 10.5674 27.432C10.0039 26.8687 9.6577 26.3034 9.39867 25.6369C9.14826 24.9925 8.9775 24.2562 8.92786 23.1774C8.87894 22.0965 8.86667 21.7521 8.86667 19.0001C8.86667 16.248 8.87933 15.9024 8.9277 14.8215C8.97623 13.7432 9.14723 13.0066 9.39843 12.362C9.6581 11.6958 10.0044 11.1304 10.568 10.5672C11.1313 10.0037 11.6966 9.65746 12.3631 9.39867C13.0075 9.1481 13.7438 8.97726 14.8226 8.92786Z" fill="#A5ABAD"/>
<path fill-rule="evenodd" clip-rule="evenodd" d="M18.0936 10.692C18.2701 10.6917 18.46 10.6918 18.6649 10.6919L19.0027 10.692C21.7083 10.692 22.029 10.7017 23.0974 10.7503C24.0854 10.7955 24.6216 10.9605 24.9788 11.0992C25.4517 11.2829 25.7888 11.5025 26.1433 11.8572C26.498 12.2118 26.7175 12.5496 26.9017 13.0225C27.0404 13.3793 27.2057 13.9155 27.2506 14.9035C27.2992 15.9718 27.3097 16.2926 27.3097 18.997C27.3097 21.7014 27.2992 22.0222 27.2506 23.0905C27.2054 24.0785 27.0404 24.6147 26.9017 24.9715C26.718 25.4444 26.498 25.7812 26.1433 26.1356C25.7887 26.4902 25.4519 26.7099 24.9788 26.8935C24.6221 27.0329 24.0854 27.1975 23.0974 27.2426C22.0291 27.2913 21.7083 27.3018 19.0027 27.3018C16.2968 27.3018 15.9761 27.2913 14.9078 27.2426C13.9198 27.1971 13.3837 27.032 13.0262 26.8933C12.5534 26.7096 12.2155 26.49 11.8609 26.1353C11.5062 25.7807 11.2867 25.4437 11.1025 24.9706C10.9638 24.6139 10.7985 24.0776 10.7536 23.0896C10.705 22.0215 10.6953 21.7005 10.6953 18.9944C10.6953 16.2884 10.705 15.9692 10.7536 14.901C10.7988 13.913 10.9638 13.3768 11.1025 13.0196C11.2862 12.5466 11.5062 12.2089 11.8609 11.8542C12.2155 11.4996 12.5534 11.28 13.0262 11.0959C13.3834 10.9566 13.9198 10.7919 14.9078 10.7465C15.8426 10.7043 16.205 10.6916 18.0936 10.6895V10.692ZM24.4118 12.3746C23.7405 12.3746 23.1957 12.9186 23.1957 13.5902C23.1957 14.2615 23.7405 14.8062 24.4118 14.8062C25.0831 14.8062 25.6278 14.2615 25.6278 13.5902C25.6278 12.9189 25.0831 12.3742 24.4118 12.3742V12.3746ZM13.7987 18.9993C13.7987 16.1255 16.1286 13.7955 19.0024 13.7954C21.8763 13.7954 24.2057 16.1254 24.2057 18.9993C24.2057 21.8732 21.8765 24.2023 19.0027 24.2023C16.1288 24.2023 13.7987 21.8732 13.7987 18.9993Z" fill="#A5ABAD"/>
<path d="M19.0028 15.623C20.8682 15.623 22.3806 17.1353 22.3806 19.0009C22.3806 20.8663 20.8682 22.3787 19.0028 22.3787C17.1372 22.3787 15.625 20.8663 15.625 19.0009C15.625 17.1353 17.1372 15.623 19.0028 15.623Z" fill="#A5ABAD"/>
</g>
<defs>
<clipPath id="clip0_1268_231">
<rect width="38" height="38" fill="white"/>
</clipPath>
</defs>
</svg>
