<svg width="39" height="38" viewBox="0 0 39 38" fill="none" xmlns="http://www.w3.org/2000/svg">
<g clip-path="url(#clip0_1268_237)">
<path fill-rule="evenodd" clip-rule="evenodd" d="M19.7695 0C9.27615 0 0.769531 8.50662 0.769531 19C0.769531 29.4934 9.27615 38 19.7695 38C30.2629 38 38.7695 29.4934 38.7695 19C38.7695 8.50662 30.2629 0 19.7695 0ZM9.8908 15.7366H14.1966V28.6739H9.8908V15.7366ZM14.4802 11.7346C14.4523 10.4662 13.5452 9.5 12.0722 9.5C10.5992 9.5 9.6362 10.4662 9.6362 11.7346C9.6362 12.9768 10.5708 13.9708 12.0163 13.9708H12.0438C13.5452 13.9708 14.4802 12.9768 14.4802 11.7346ZM24.7674 15.4328C27.6009 15.4328 29.7251 17.2823 29.7251 21.256L29.7249 28.6739H25.4193V21.7524C25.4193 20.0139 24.7961 18.8276 23.2374 18.8276C22.0479 18.8276 21.3393 19.6273 21.0281 20.3998C20.9143 20.6766 20.8863 21.0623 20.8863 21.4489V28.6742H16.58C16.58 28.6742 16.6367 16.9509 16.58 15.737H20.8863V17.5694C21.4578 16.6885 22.4813 15.4328 24.7674 15.4328Z" fill="#A5ABAD"/>
</g>
<defs>
<clipPath id="clip0_1268_237">
<rect width="38" height="38" fill="white" transform="translate(0.769531)"/>
</clipPath>
</defs>
</svg>
