<svg width="39" height="38" viewBox="0 0 39 38" fill="none" xmlns="http://www.w3.org/2000/svg">
<g clip-path="url(#clip0_1268_239)">
<path fill-rule="evenodd" clip-rule="evenodd" d="M19.3086 0C8.81521 0 0.308594 8.50662 0.308594 19C0.308594 29.4934 8.81521 38 19.3086 38C29.802 38 38.3086 29.4934 38.3086 19C38.3086 8.50662 29.802 0 19.3086 0ZM18.7794 16.1009L18.7395 15.4434C18.6199 13.7395 19.6698 12.183 21.3311 11.5793C21.9425 11.3646 22.9791 11.3378 23.6569 11.5256C23.9227 11.6061 24.4277 11.8744 24.7865 12.116L25.4378 12.5588L26.1554 12.3307C26.5542 12.2099 27.0858 12.0086 27.3249 11.8744C27.5509 11.7537 27.7502 11.6866 27.7502 11.7269C27.7502 11.955 27.2585 12.7332 26.8465 13.1625C26.2883 13.7663 26.4478 13.82 27.5775 13.4174C28.2553 13.1893 28.2685 13.1893 28.1357 13.4442C28.0559 13.5784 27.6439 14.048 27.2053 14.4774C26.4611 15.2154 26.4212 15.2959 26.4212 15.9131C26.4212 16.8657 25.9694 18.8514 25.5175 19.9382C24.6802 21.9776 22.8861 24.0841 21.0919 25.144C18.5668 26.6334 15.2044 27.0091 12.3736 26.137C11.43 25.8417 9.80859 25.0904 9.80859 24.9563C9.80859 24.916 10.3003 24.8623 10.8984 24.8489C12.1477 24.8221 13.3969 24.4732 14.4601 23.856L15.1778 23.4267L14.3538 23.1449C13.1843 22.7424 12.1344 21.8166 11.8686 20.9445C11.7888 20.6627 11.8154 20.6493 12.5596 20.6493L13.3305 20.6359L12.6793 20.3273C11.9084 19.9382 11.2041 19.2807 10.8585 18.6099C10.606 18.1269 10.2871 16.9059 10.3801 16.812C10.4066 16.7718 10.6858 16.8522 11.0047 16.9596C11.9217 17.295 12.0413 17.2145 11.5097 16.651C10.5129 15.6313 10.2073 14.1151 10.6858 12.6795L10.9117 12.0355L11.7888 12.9076C13.583 14.6652 15.6961 15.7118 18.1149 16.0204L18.7794 16.1009Z" fill="#A5ABAD"/>
</g>
<defs>
<clipPath id="clip0_1268_239">
<rect width="38" height="38" fill="white" transform="translate(0.308594)"/>
</clipPath>
</defs>
</svg>
